<svg width="183" height="60" viewBox="0 0 183 60" fill="none" xmlns="http://www.w3.org/2000/svg">
<path d="M175.846 0.351257H7.45862C3.73872 0.351257 0.723145 3.67811 0.723145 7.782V52.3665C0.723145 56.4703 3.73872 59.7972 7.45862 59.7972H175.846C179.566 59.7972 182.581 56.4703 182.581 52.3665V7.782C182.581 3.67811 179.566 0.351257 175.846 0.351257Z" fill="black"/>
<path d="M64.6024 15.5694C64.6428 16.6692 64.2791 17.7392 63.5921 18.5417C62.8243 19.4334 61.7466 19.909 60.6285 19.8792C58.9177 19.8495 57.3955 18.6903 56.7219 16.9664C56.0888 15.2276 56.4525 13.2213 57.6649 11.8838C58.4327 10.9921 59.5104 10.5165 60.6285 10.5462C61.1943 10.5462 61.7601 10.6651 62.2854 10.9178C62.7704 11.1556 63.2015 11.5122 63.5517 11.9284L62.8377 12.716C62.2989 12.0175 61.4906 11.6311 60.642 11.6757C59.7933 11.6757 58.9716 12.0472 58.3788 12.716C57.7727 13.3996 57.4628 14.3062 57.4898 15.2425C57.4898 16.6543 58.2307 17.9473 59.4026 18.512C60.5881 19.0767 61.9621 18.8092 62.8781 17.8135C63.2823 17.3231 63.5517 16.6692 63.5517 16.0004H60.6285V14.9601H64.5351C64.589 15.1682 64.6024 15.4059 64.6024 15.614V15.5694ZM70.7721 11.854H67.135V14.6777H70.4488V15.7478H67.135V18.5714H70.7721V19.6712H66.0573V10.7543H70.7721V11.854ZM75.1906 19.6712H74.1533V11.854H71.9037V10.7543H77.5076V11.854H75.1906V19.6712ZM81.4681 19.6712V10.7543H82.5053V19.6712H81.4681ZM87.1124 19.6712H86.0751V11.854H83.812V10.7543H89.3621V11.854H87.1124V19.6712ZM99.8694 18.512C98.2529 20.2954 95.5991 20.2954 93.9422 18.512C93.1827 17.6148 92.7603 16.4329 92.7603 15.2053C92.7603 13.9777 93.1827 12.7959 93.9422 11.8986C94.7504 11.0069 95.8012 10.5314 96.9058 10.5314C98.0374 10.5314 99.1016 11.0218 99.8694 11.8986C100.647 12.7855 101.082 13.9713 101.082 15.2053C101.082 16.4394 100.647 17.6251 99.8694 18.512ZM94.7235 17.7689C95.9359 19.1065 97.9026 19.1065 99.115 17.7689C100.327 16.3125 100.327 14.113 99.115 12.6566C97.9026 11.319 95.9359 11.319 94.7235 12.6566C93.5111 14.113 93.5111 16.3125 94.7235 17.7689ZM102.537 19.6712V10.7543H103.803L107.736 17.6946V10.7543H108.774V19.6712H107.696L103.601 12.3891V19.6712H102.537Z" fill="white" stroke="white" stroke-width="0.2"/>
<path d="M92.5142 32.675C89.362 32.675 86.8025 35.5284 86.816 39.006C86.8231 40.6838 87.4323 42.2903 88.5103 43.474C89.5882 44.6576 91.0472 45.3221 92.5681 45.3221C95.7203 45.3221 98.2798 42.4984 98.2798 39.006C98.3202 37.3118 97.714 35.6919 96.6363 34.5029C95.5587 33.314 94.0769 32.6601 92.5412 32.6898L92.5142 32.675ZM92.5142 42.8254C91.0863 42.9294 89.7527 42.0823 89.1465 40.6556C88.5268 39.2289 88.7424 37.5347 89.7257 36.3904C90.6956 35.2312 92.2044 34.8596 93.538 35.4244C94.8851 36.0188 95.7473 37.4158 95.7473 38.9911C95.7877 39.972 95.4778 40.9231 94.8582 41.6662C94.252 42.3795 93.4033 42.7957 92.5142 42.8254ZM79.9862 32.675C76.8071 32.675 74.2611 35.4987 74.2611 39.006C74.2611 40.6791 74.8636 42.2838 75.936 43.4669C77.0084 44.65 78.4629 45.3147 79.9795 45.3147C81.4961 45.3147 82.9506 44.65 84.023 43.4669C85.0955 42.2838 85.6979 40.6791 85.6979 39.006C85.6979 37.3118 85.1052 35.6919 84.0275 34.5029C82.9498 33.314 81.468 32.6601 79.9324 32.6898L79.9862 32.675ZM79.9862 42.8254C78.5448 42.9443 77.2112 42.0823 76.5916 40.6705C75.9719 39.2438 76.1874 37.5496 77.1708 36.3904C77.6471 35.8292 78.2642 35.4376 78.9433 35.2655C79.6224 35.0935 80.3326 35.1488 80.9831 35.4244C82.3302 36.0188 83.1923 37.4158 83.1923 38.9911C83.2327 39.972 82.9229 40.9231 82.3032 41.6662C81.6971 42.3795 80.8484 42.7957 79.9593 42.8254H79.9862ZM65.0335 34.6218V37.2969H70.8529C70.7586 38.5601 70.2871 39.7491 69.5058 40.6705C68.3339 42.008 66.7039 42.7065 65.02 42.6322C63.328 42.5941 61.7169 41.8258 60.5324 40.4921C59.348 39.1585 58.6846 37.3658 58.6846 35.4987C58.6846 33.6316 59.348 31.8389 60.5324 30.5052C61.7169 29.1716 63.328 28.4033 65.02 28.3652C66.6635 28.3354 68.253 29.0191 69.425 30.2971L71.1358 28.3949C70.3358 27.5094 69.3845 26.8079 68.337 26.3308C67.2895 25.8538 66.1667 25.6108 65.0335 25.6158C61.7735 25.4672 58.7021 27.31 57.0317 30.416C56.2118 31.9327 55.7789 33.6658 55.7789 35.4318C55.7789 37.1977 56.2118 38.9308 57.0317 40.4475C57.8483 41.9702 59.0234 43.2205 60.4323 44.0657C61.8411 44.9109 63.4311 45.3193 65.0335 45.2478C67.364 45.3964 69.6136 44.3561 71.2301 42.5133C72.6547 40.8106 73.4144 38.5576 73.3451 36.2417C73.3451 35.677 73.3181 35.1123 73.2103 34.5624L65.0469 34.6516L65.0335 34.6218ZM126.057 36.7024C125.713 35.5613 125.059 34.5643 124.185 33.8465C123.31 33.1288 122.257 32.725 121.167 32.6898C119.685 32.6898 118.271 33.3438 117.26 34.5475C116.223 35.7365 115.698 37.3712 115.779 39.006C115.779 40.6853 116.344 42.3052 117.422 43.4941C118.5 44.6831 119.955 45.3518 121.463 45.3221C123.39 45.3221 125.181 44.2818 126.246 42.5281L124.292 41.042C123.7 42.1269 122.635 42.7957 121.463 42.7957C120.278 42.8402 119.173 42.0823 118.702 40.8637L126.38 37.3861L126.084 36.7322L126.057 36.7024ZM118.244 38.8128C118.203 37.8914 118.486 36.97 119.052 36.2863C119.618 35.5878 120.399 35.1717 121.248 35.1271C122.137 35.0677 122.972 35.573 123.376 36.4647L118.257 38.8128H118.244ZM112.061 44.9357H114.566V26.3589H112.047V44.9357H112.061ZM107.925 34.0868H107.831C107.063 33.1357 105.972 32.6007 104.813 32.6007C101.755 32.7493 99.3575 35.5433 99.3575 38.9168C99.3575 42.3052 101.782 45.0843 104.827 45.2478C105.985 45.2775 107.09 44.7425 107.844 43.7617H107.925V44.6831C107.925 47.1055 106.753 48.3984 104.867 48.3984C104.239 48.3824 103.629 48.1624 103.114 47.7658C102.599 47.3693 102.201 46.8139 101.971 46.1692L99.7751 47.1649C100.195 48.2678 100.901 49.2091 101.805 49.8702C102.709 50.5313 103.769 50.8828 104.854 50.8803C107.79 50.8803 110.242 48.9483 110.242 44.2967V33.0465H107.912V34.0868H107.925ZM105.042 42.8254C103.237 42.647 101.863 40.9826 101.863 38.9911C101.863 36.9997 103.237 35.3352 105.042 35.1569C105.918 35.2014 106.726 35.6473 107.305 36.3458C107.898 37.0888 108.181 38.0251 108.114 38.9911C108.194 39.9571 107.898 40.9231 107.305 41.6365C106.74 42.3795 105.918 42.7957 105.042 42.8254ZM137.857 26.3589H131.849V44.9357H134.368V37.8914H137.898C139.851 38.04 141.724 36.9997 142.747 35.1271C143.771 33.2843 143.771 30.9659 142.747 29.1231C142.247 28.2157 141.53 27.4778 140.674 26.9902C139.819 26.5027 138.858 26.2842 137.898 26.3589H137.857ZM137.857 35.2757H134.355V28.9448H137.925C139.514 28.9448 140.821 30.3715 140.821 32.14C140.821 33.8788 139.514 35.3055 137.925 35.3055L137.871 35.2609L137.857 35.2757ZM153.403 32.6007C151.517 32.4818 149.766 33.5964 148.917 35.4244L151.167 36.4647C151.611 35.5433 152.514 35.0082 153.457 35.0974C154.103 35.0082 154.75 35.2163 155.262 35.6919C155.774 36.1377 156.097 36.7768 156.164 37.4752V37.6833C155.356 37.2077 154.454 36.97 153.538 36.97C151.113 36.97 148.688 38.4561 148.688 41.1312C148.742 42.3201 149.227 43.3901 149.995 44.1629C150.763 44.9357 151.8 45.3221 152.851 45.2329C154.144 45.337 155.383 44.6385 156.084 43.4496H156.164V44.9357H158.589V37.8022C158.589 34.5327 156.353 32.6453 153.47 32.6453L153.416 32.6007H153.403ZM153.093 42.7808C152.285 42.7808 151.14 42.3349 151.14 41.2055C151.14 39.7193 152.568 39.214 153.834 39.214C154.642 39.214 155.424 39.4072 156.124 39.8382C156.039 40.6451 155.692 41.3906 155.147 41.937C154.602 42.4834 153.897 42.7937 153.16 42.8105L153.107 42.7659L153.093 42.7808ZM167.426 33.0465L164.543 41.1014H164.463L161.459 33.0465H158.764L163.25 44.3115L160.691 50.5534H163.318L170.215 33.0465H167.413H167.426ZM144.795 44.9357H147.301V26.3589H144.782V44.9357H144.795Z" fill="white"/>
<path d="M14.7869 11.5717C14.3423 12.1661 14.1133 12.9538 14.1941 13.7266V46.4219C14.1537 47.1649 14.3693 47.908 14.8138 48.5025L14.9081 48.6065L31.5717 30.2972V29.8513L14.8677 11.4974L14.7869 11.6014V11.5717Z" fill="url(#paint0_linear_227_79)"/>
<path d="M37.0948 36.4201L31.5312 30.2823V29.8364L37.0948 23.7432L37.2295 23.8027L43.8302 27.9342C45.7162 29.1231 45.7162 31.0551 43.8302 32.244L37.2295 36.3606L37.0948 36.4201Z" fill="url(#paint1_linear_227_79)"/>
<path d="M37.2294 36.3458L31.5716 30.0742L14.7733 48.5768C15.5816 49.3496 16.7401 49.3793 17.5753 48.6659L37.2429 36.3606" fill="url(#paint2_linear_227_79)"/>
<path d="M37.2294 23.8027L17.5618 11.4676C17.1581 11.1258 16.6593 10.9493 16.1507 10.9682C15.642 10.9872 15.1552 11.2005 14.7733 11.5717L31.5716 30.0742L37.2294 23.8027Z" fill="#00F076"/>
<defs>
<linearGradient id="paint0_linear_227_79" x1="883.856" y1="11.4974" x2="883.856" y2="3722.41" gradientUnits="userSpaceOnUse">
<stop offset="0.03938" stop-color="#00C3FF"/>
<stop offset="0.97744" stop-color="#00E1FF"/>
</linearGradient>
<linearGradient id="paint1_linear_227_79" x1="1138.85" y1="657.586" x2="-2118.43" y2="657.586" gradientUnits="userSpaceOnUse">
<stop stop-color="#FDDE31"/>
<stop offset="0.4" stop-color="#FABC31"/>
<stop offset="0.77" stop-color="#F8A431"/>
<stop offset="1" stop-color="#F79B31"/>
</linearGradient>
<linearGradient id="paint2_linear_227_79" x1="1950.55" y1="370.397" x2="-517.836" y2="4138.67" gradientUnits="userSpaceOnUse">
<stop stop-color="#FF3A44"/>
<stop offset="1" stop-color="#C4206D"/>
</linearGradient>
</defs>
</svg>
